<?xml version="1.0" encoding="UTF-8" standalone="no"?>
<!DOCTYPE svg PUBLIC "-//W3C//DTD SVG 1.1//EN" "http://www.w3.org/Graphics/SVG/1.1/DTD/svg11.dtd">
<svg width="100%" height="100%" viewBox="0 0 703 355" version="1.1" xmlns="http://www.w3.org/2000/svg" xmlns:xlink="http://www.w3.org/1999/xlink" xml:space="preserve" xmlns:serif="http://www.serif.com/" style="fill-rule:evenodd;clip-rule:evenodd;stroke-linejoin:round;stroke-miterlimit:2;">
    <g transform="matrix(1,0,0,1,-62.3441,-201.875)">
        <path 
            d="M71.25,418.125C68.75,418.125 66.875,417.5 65,415.625C61.875,412.5 61.875,408.125 63.125,405C77.5,380.625 140,278.125 320.625,251.25L355.625,201.875L456.25,217.5L433.125,250C536.25,270 615.625,350.625 643.75,385.625L759.375,413.125C760.625,413.125 761.25,413.75 762.5,415C765.625,418.125 765.625,423.125 762.5,426.25C761.25,427.5 760.625,428.125 758.75,428.125L671.25,463.125L636.25,550.625C636.25,551.875 635,553.125 634.375,554.375C631.25,557.5 626.25,557.5 623.125,554.375C622.5,553.75 621.875,552.5 621.25,551.875L593.75,436.875C518.75,361.875 399.375,412.5 369.375,427.5C310.625,456.875 145,492.5 69.375,459.375C68.125,458.75 66.875,458.125 66.25,457.5C62.5,453.75 62.5,448.125 66.25,445C68.125,443.125 69.375,442.5 71.875,441.875L121.25,434.375C122.5,434.375 123.75,433.75 125,432.5C126.875,430.625 126.875,427.5 125,425C123.75,423.75 122.5,423.125 120.625,423.75L71.25,418.125ZM159.375,390.625C166.875,383.125 166.875,370.625 159.375,363.125C151.875,355.625 139.375,355.625 131.875,363.125C124.375,370.625 124.375,383.125 131.875,390.625C139.375,398.125 151.875,398.125 159.375,390.625" 
            style="fill:rgb(228,189,0);fill-rule:nonzero;" 
            stroke="black" 
            stroke-width="3"
        />
    </g>
</svg>
